<?xml version="1.0" encoding="UTF-8"?>
<svg id="Calque_1" data-name="Calque 1" xmlns="http://www.w3.org/2000/svg" viewBox="0 0 27.49 27.49">
  <defs>
    <style>
      .cls-1 {
        fill: none;
        stroke: #1565c0;
        stroke-miterlimit: 10;
      }

      .cls-2 {
        fill: #312783;
      }
    </style>
  </defs>
  <g>
    <path class="cls-2" d="M13.6,18.81c.76-.29,1.44-1.78,2.26-1.25.42.27.79.69.49,1.19-.21.35-1.87,1.73-2.29,2.01-.81.55-2.21,1.24-3.08.48s-.4-2.34-.21-3.3c.39-2.02,1.13-3.96,1.64-5.95-.61.11-1.01,1.17-1.61,1.21-.42.02-1.19-.56-1.14-1.02.05-.43,2-2.03,2.47-2.31,1.32-.78,3.86-1.56,3.61.86-.15,1.44-1.1,3.78-1.51,5.3-.24.92-.48,1.84-.63,2.77Z"/>
    <path class="cls-2" d="M14.88,4.62c2.3-.48,2.55,2.45.83,3.22-2.41,1.08-2.85-2.8-.83-3.22Z"/>
  </g>
  <circle class="cls-1" cx="13.75" cy="13.75" r="13.25"/>
</svg>