<?xml version="1.0" encoding="UTF-8"?>
<svg id="Calque_1" data-name="Calque 1" xmlns="http://www.w3.org/2000/svg" viewBox="0 0 27.13 29.25">
  <defs>
    <style>
      .cls-1 {
        fill: #312783;
      }

      .cls-2 {
        stroke: #fff;
        stroke-linecap: round;
        stroke-linejoin: round;
        stroke-width: 1.5px;
      }

      .cls-2, .cls-3 {
        fill: none;
      }

      .cls-3 {
        stroke: #1565c0;
        stroke-miterlimit: 10;
        stroke-width: .75px;
      }
    </style>
  </defs>
  <path class="cls-3" d="M18.22,28.79H3.79c-1.88,0-3.42-1.52-3.42-3.42V5.62c0-1.89,1.54-3.42,3.42-3.42h2.66"/>
  <path class="cls-3" d="M16.61,2.2h2.66c1.89,0,3.42,1.52,3.42,3.42v7.38"/>
  <path class="cls-1" d="M27.13,19.75c0,5.25-4.25,9.5-9.5,9.5-.79,0-1.55-.1-2.28-.29-4.15-1.01-7.22-4.74-7.22-9.21,0-5.24,4.26-9.5,9.5-9.5,1.85,0,3.58.53,5.05,1.45,2.68,1.67,4.45,4.66,4.45,8.05Z"/>
  <path class="cls-3" d="M16.65,2.06v1.09c0,.94-1.01,1.69-2.27,1.69h-5.71c-1.24,0-2.27-.75-2.27-1.69v-1.09c0-.11.01-.23.04-.33.21-.78,1.13-1.36,2.23-1.36h5.71c1.11,0,2.02.58,2.23,1.36.03.1.04.22.04.33Z"/>
  <polyline class="cls-2" points="13.02 19.73 16.34 23.06 22.67 16.73"/>
</svg>