<?xml version="1.0" encoding="UTF-8"?>
<svg id="Calque_1" data-name="Calque 1" xmlns="http://www.w3.org/2000/svg" viewBox="0 0 27.54 27.69">
  <defs>
    <style>
      .cls-1 {
        fill: #312783;
      }

      .cls-2 {
        fill: none;
        stroke: #1565c0;
        stroke-linecap: round;
        stroke-miterlimit: 10;
      }
    </style>
  </defs>
  <path class="cls-2" d="M15.22.5c1.43.36,4.49,1.32,7.3,4.02,3.11,2.98,4.16,6.37,4.51,7.8"/>
  <path class="cls-2" d="M15.3,6.08c.76.19,2.37.7,3.85,2.12,1.64,1.57,2.19,3.36,2.38,4.11"/>
  <path class="cls-1" d="M10.01,8.05L5.08,2.79c-.29-.31-.77-.31-1.06,0L.2,6.81c-.15.16-.23.38-.19.61.38,2.43,1.53,7.44,5.53,12.13,5.17,6.05,11.78,7.69,14.23,8.14.24.04.48-.03.65-.2l4.21-4.14c.29-.29.29-.75,0-1.04l-5.12-5.05c-.28-.28-.73-.28-1.02,0l-3.04,2.92c-.23.22-.57.27-.85.12-1.17-.65-2.66-1.64-4.13-3.12-1.54-1.55-2.56-3.11-3.21-4.31-.14-.27-.1-.6.1-.82l2.66-2.98c.25-.28.25-.71-.01-.99Z"/>
</svg>