<?xml version="1.0" encoding="UTF-8"?>
<svg id="Calque_1" data-name="Calque 1" xmlns="http://www.w3.org/2000/svg" viewBox="0 0 23.17 22.5">
  <defs>
    <style>
      .cls-1 {
        fill: #48b59b;
      }
    </style>
  </defs>
  <g id="Nouveau_symbole" data-name="Nouveau symbole">
    <path class="cls-1" d="M14.44,18.31c-1.59,0-2.88-1.32-2.88-2.91s1.29-2.88,2.88-2.88,2.88,1.29,2.88,2.88-1.29,2.91-2.88,2.91ZM18.9,2.48l2.34.56,1.92-1.52L17.65.1s-.11-.03-.14-.03c-.59-.17-1.02,0-1.25.13-.43.27-.7.66-.83,1.22l-.06.23.33,1.48h-5.98l-.1.03c-.9.2-1.53,1-1.53,1.95v1.16h8.33l.6,2.51c-.8-.33-1.65-.5-2.59-.5-2.31,0-4.33,1.09-5.61,2.78h-4.59c-.97,0-1.72.76-1.72,1.72,0,.4.13.76.36,1.03l-1.25,3.44c-.97.36-1.62,1.25-1.62,2.31,0,1.39,1.12,2.51,2.51,2.51s2.51-1.12,2.51-2.51c0-.63-.27-1.22-.67-1.65l1.48-3.44h1.56c-.03.3-.06.63-.06.92,0,3.94,3.17,7.11,7.1,7.11s7.11-3.17,7.11-7.11c0-.83-.13-1.61-.42-2.38l-2.22-10.54ZM2.47,20.56c-.54,0-.97-.43-.97-.98s.42-.97.97-.97.97.43.97.97-.42.98-.97.98Z"/>
  </g>
</svg>