<?xml version="1.0" encoding="UTF-8"?>
<svg id="Calque_1" data-name="Calque 1" xmlns="http://www.w3.org/2000/svg" viewBox="0 0 26.3 14.77">
  <defs>
    <style>
      .cls-1 {
        fill: #fff;
      }

      .cls-2 {
        fill: #48b69c;
      }
    </style>
  </defs>
  <g id="Nouveau_symbole" data-name="Nouveau symbole">
    <path class="cls-2" d="M3.61,14.77h0s.03,0,.03,0c0,0-.02,0-.03,0Z"/>
    <path class="cls-1" d="M10.69,11.88v1.16h-1.5c-1.07,0-1.94-.86-1.94-1.93v-3.21h1.17v3.21c0,.42.35.77.77.77h1.5Z"/>
    <path class="cls-1" d="M23.38,9.08v.8h2.2v1.18h-2.2v.8h2.92v1.18h-3.09c-.56,0-1.01-.45-1.01-1.01v-3.12c0-.56.45-1.01,1.01-1.01h3.09v1.18h-2.92Z"/>
    <path class="cls-2" d="M1.22,0v2.87h3.83V0h1.22v6.95h-1.22c0-1.58-1.28-2.87-2.87-2.87h-.97s0,9.02,0,9.02H0V0h1.22Z"/>
    <path class="cls-2" d="M14.63,1.68h0c0,.29.32.47.57.31.31-.2.67-.31,1.05-.31,1.23,0,2.23,1.18,2.23,2.64v2.64h-1.22v-2.64c0-.78-.59-1.42-1.32-1.42s-1.32.64-1.32,1.42v2.64h-1.22V1.68h1.22Z"/>
    <path class="cls-2" d="M21.23,1.68c.64,0,1.22.32,1.62.82V0h1.22v6.96h-1.22,0c0-.29-.32-.47-.57-.31-.31.2-.67.31-1.05.31-1.23,0-2.23-1.18-2.23-2.64s1-2.64,2.23-2.64ZM21.54,2.9c-.73,0-1.32.64-1.32,1.42s.59,1.42,1.32,1.42,1.32-.64,1.32-1.42-.59-1.42-1.32-1.42Z"/>
    <path class="cls-2" d="M25.07,0h1.22v1.22h-1.22V0ZM26.3,1.68v5.28h-1.22V1.68h1.22Z"/>
    <path class="cls-1" d="M5.35,7.9h-3.12v5.14h1.02v-.06c0-1.11.89-2,2-2h.1c.84,0,1.53-.69,1.53-1.54s-.69-1.54-1.53-1.54ZM5.32,9.97h-2.07v-1.06h2.1c.15,0,.31.06.41.19.1.13.14.29.1.46-.05.23-.28.41-.53.41Z"/>
    <path class="cls-2" d="M12.02,1.43l.67.16.55-.44-1.58-.41s-.03,0-.04,0c-.17-.05-.29,0-.36.04-.12.08-.2.19-.24.35l-.02.07.09.43h-1.74c-.26.07-.44.29-.44.57v.33h2.39l.17.72c-.23-.09-.47-.14-.74-.14-.66,0-1.24.31-1.61.8h-1.32c-.27,0-.49.22-.49.49,0,.11.04.22.1.29l-.36.99c-.27.1-.46.36-.46.66,0,.4.32.72.72.72s.72-.32.72-.72c0-.18-.08-.35-.19-.47l.43-.99h.45c0,.09-.02.18-.02.27,0,1.13.91,2.04,2.04,2.04s2.04-.91,2.04-2.04c0-.24-.04-.46-.12-.68l-.63-3.02ZM7.31,6.63c-.15,0-.27-.12-.27-.27,0-.16.12-.28.27-.28s.28.12.28.28c0,.15-.13.27-.28.27ZM10.74,5.96c-.45,0-.82-.38-.82-.83s.37-.82.82-.82.82.37.82.82-.37.83-.82.83Z"/>
    <path class="cls-2" d="M8.44,3.73h0s.03,0,.03,0c0,0-.02,0-.03,0Z"/>
    <g>
      <path class="cls-1" d="M15.11,9.32c-.53.03-.97.29-1.26.73-.02.03-.09.18-.1.18-.02,0-.02,0-.02-.02-.05-.08-.08-.16-.14-.24-.28-.4-.73-.63-1.21-.66l.49-1.19c.08-.13.19-.2.35-.22.28-.02.81-.03,1.09,0,.15.01.26.1.33.23l.48,1.18Z"/>
      <path class="cls-1" d="M13.28,10.27s-.03.01-.04,0c-.36-.08-.65-.1-1.01.04l-.32.17.35-.87,1.01.65Z"/>
      <path class="cls-1" d="M15.58,10.5l-.32-.17c-.35-.14-.64-.13-1.01-.04-.01,0-.04.02-.04,0l1.01-.65.35.87Z"/>
      <g>
        <path class="cls-1" d="M13.19,10.69l-.28.19c-.22.2-.38.47-.43.77l1.1-.83-.1,1.12s-.03.07-.06.12c-.06.13-.34.67-.92.92-.15.06-.62.09-1.09.01-.26-.04-.39-.32-.31-.56.24-.58.46-1.17.72-1.74h1.36Z"/>
        <path class="cls-1" d="M15.66,10.69c.26.57.47,1.16.72,1.74.08.24-.05.52-.31.56-.48.08-.97.04-1.09-.01-.56-.24-.84-.77-.93-.95-.02-.04-.03-.07-.04-.09-.03-.37-.07-.75-.1-1.12l1.1.83c-.05-.3-.21-.57-.43-.77l-.28-.19h1.36Z"/>
      </g>
    </g>
    <path class="cls-1" d="M18.98,10.01h2.7v.39c0,.23-.02.45-.06.67s-.1.44-.19.65c-.22.43-.54.76-.96.98s-.85.33-1.31.34h-.12c-.52-.02-1.02-.16-1.48-.44s-.8-.67-1-1.18c-.03-.08-.06-.17-.09-.25s-.05-.17-.06-.26c-.02-.08-.03-.17-.04-.25s-.02-.17-.02-.25c0-.61.19-1.17.58-1.67.39-.5.91-.81,1.57-.91.02,0,.04,0,.06,0s.04,0,.06-.01c.02,0,.03,0,.04,0,.01,0,.03,0,.04,0,.07-.01.14-.02.2-.02.07,0,.13,0,.19,0,.44,0,.86.1,1.25.3s.72.49.99.88l-1.2.56c-.12-.15-.26-.27-.4-.36-.15-.09-.3-.15-.45-.19-.04,0-.09-.01-.13-.02-.04,0-.09,0-.13,0-.34,0-.64.13-.91.4-.27.27-.4.63-.4,1.08,0,.01,0,.02,0,.03v.03c0,.42.11.78.33,1.08.36.5,1.03.47,1.03.47.3,0,.57-.08.82-.25s.4-.4.45-.71h-1.37v-1.05Z"/>
  </g>
</svg>