<?xml version="1.0" encoding="UTF-8"?>
<svg id="Calque_1" data-name="Calque 1" xmlns="http://www.w3.org/2000/svg" viewBox="0 0 24.07 24.07">
  <defs>
    <style>
      .cls-1, .cls-2, .cls-3, .cls-4, .cls-5 {
        stroke-miterlimit: 10;
      }

      .cls-1, .cls-2, .cls-3, .cls-5 {
        fill: none;
      }

      .cls-1, .cls-4, .cls-5 {
        stroke: #d1c825;
      }

      .cls-6 {
        fill: #779cd2;
      }

      .cls-2 {
        stroke: #0772b8;
        stroke-width: .5px;
      }

      .cls-7 {
        fill: #fff;
      }

      .cls-8 {
        fill: #385aa6;
      }

      .cls-9, .cls-4 {
        fill: #d1c825;
      }

      .cls-3 {
        stroke: #1d1d1b;
      }

      .cls-3, .cls-5 {
        stroke-width: .25px;
      }

      .cls-4 {
        stroke-width: .03px;
      }

      .cls-10 {
        fill: #0772b8;
      }

      .cls-11 {
        fill: #a39d21;
      }
    </style>
  </defs>
  <g>
    <circle class="cls-7" cx="12.04" cy="12.04" r="11.79"/>
    <path class="cls-5" d="M12.04,22.82c-5.95,0-10.79-4.84-10.79-10.79S6.09,1.25,12.04,1.25s10.79,4.84,10.79,10.79-4.84,10.79-10.79,10.79Z"/>
    <circle class="cls-2" cx="12.04" cy="12.04" r="11.79"/>
  </g>
  <path class="cls-3" d="M11.37,16.46c0,1.59-1.28,2.87-2.87,2.87s-2.87-1.28-2.87-2.87,1.28-2.87,2.87-2.87,2.87,1.28,2.87,2.87Z"/>
  <path class="cls-9" d="M16.17,18.22c-.5,0-.91.41-.91.9s.41.91.91.91.91-.41.91-.91-.41-.9-.91-.9ZM16.17,19.86c-.41,0-.73-.33-.73-.73s.33-.73.73-.73.73.33.73.73-.33.73-.73.73Z"/>
  <path class="cls-9" d="M16.17,18.89c-.13,0-.24.11-.24.24s.11.24.24.24.24-.11.24-.24-.11-.24-.24-.24ZM16.17,19.32c-.11,0-.2-.09-.2-.2s.09-.19.2-.19.2.09.2.19-.09.2-.2.2Z"/>
  <path class="cls-5" d="M16.36,19.13c0,.11-.09.2-.2.2s-.2-.09-.2-.2.09-.19.2-.19.2.09.2.19Z"/>
  <path class="cls-10" d="M11.85,15.28h3.21c.28,0,.51-.23.51-.51h0c0-.28-.23-.51-.51-.51h-4.52l1.3,1.02Z"/>
  <path class="cls-10" d="M8.82,13.15l-1.51-5.53c-.1-.44-.36-.51-.63-.45h0c-.28.06-.47.24-.36.68l1.23,5.4,1.27-.11Z"/>
  <path class="cls-6" d="M16.01,17.76h1.23c.11,0,.2-.07.2-.16h0c0-.09-.09-.16-.2-.16h-1.35l.12.32Z"/>
  <path class="cls-10" d="M14.57,15.29l1.3,2.99c.07.21.11.08.2.05h0c.08-.03.18.05.1-.16l-1.07-2.89h-.52Z"/>
  <path class="cls-6" d="M12.3,11.17h0s-4.02.01-4.02.01l-.13-.51h3.8c.21.05.36.25.36.49Z"/>
  <polygon class="cls-6" points="6.31 7.65 5.92 7.64 5.13 8.85 4.74 8.83 5.54 7.22 6.51 7.25 6.31 7.65"/>
  <path class="cls-9" d="M8.51,12.92c-1.96,0-3.54,1.59-3.54,3.54s1.59,3.54,3.54,3.54,3.54-1.59,3.54-3.54-1.59-3.54-3.54-3.54ZM8.51,19.33c-1.59,0-2.87-1.28-2.87-2.87s1.28-2.87,2.87-2.87,2.87,1.28,2.87,2.87-1.28,2.87-2.87,2.87Z"/>
  <path class="cls-1" d="M11.37,16.46c0,1.59-1.28,2.87-2.87,2.87s-2.87-1.28-2.87-2.87,1.28-2.87,2.87-2.87,2.87,1.28,2.87,2.87Z"/>
  <path class="cls-5" d="M16.9,19.13c0,.41-.33.73-.73.73s-.73-.33-.73-.73.33-.73.73-.73.73.33.73.73Z"/>
  <g>
    <path class="cls-10" d="M11.72,6.92l.88-.95c-.05-.1-.92-.25-1.05-.3-.16-.06-.34-.19-.51-.26-.5-.22-1.06-.29-1.53-.26.82.49,1.57,1.1,2.21,1.76ZM13.58,7.84l.58-1.18c-.04-.05-1.12-.54-1.19-.53-.11.02-.44.36-.52.45-.15.15-.27.33-.42.48v.08s1.56.7,1.56.7ZM13.23,9.06c-.02.13.13.22.22.12l1.12-2.3-.21-.13c-.07,0-.04.09-.06.12-.64,1.25-.44.93-1.07,2.18ZM14.06,8.04s.38.22.41.25l1.27.82c.08,0,.19-1.32.11-1.45l-1.26-.8c-.12.24-.21.49-.31.74-.03.08-.22.37-.22.44ZM16.06,9.24c.87.17,1.73.44,2.58.82-.24-.43-.7-.9-1.17-1.2-.13-.08-.32-.15-.43-.23-.25-.19-.48-.49-.79-.69-.03-.02-.03-.06-.09-.03.05.46-.03.9-.1,1.32ZM19.13,9.2c-.66-1.54-1.5-2.35-2.85-3.57-.1-.09-.45-.35-.48-.41l-1.06-.53c-.13-.05-.28-.12-.41-.15-1.61-.43-2.76-.65-4.2-.37-.5.1-1.29.28-1.05.91.14.37.3.35.63.57.48.32.94.7,1.36,1.08.17.15.41.45.55.56.14.1.94.38,1.18.48.17.08.5.23.65.32l-.36.9s.4.37.4.37l.45-1.03.37.24c.23.12.44.26.65.4.17.11.73.54.83.59.08.03.56.08.72.12.7.15,1.45.43,2.12.76.36.03.56-.08.65-.32.1-.27-.03-.59-.17-.9ZM18.9,9.84c-.28-.43-.72-.88-1.19-1.18-.11-.08-.37-.19-.45-.25-.14-.1-.37-.36-.55-.5-1.22-1.01-3.08-1.98-4.55-2.43-.42-.12-.49-.13-.9-.31-.59-.25-1.11-.37-1.68-.38.01-.1.2-.14.3-.17.79-.24,1.86-.3,2.81-.14l.37.08c-.21.06-1.13.3-1.07.53.19.29.32.06.45-.01.73-.34,1.5-.45,2.49.03,1.24.6,1.69,1.25,1.97,2.32.04.14,0,.45.23.47.14.01.12-.11.12-.2-.01-.32-.2-.74-.36-1.08.05,0,.12.09.16.13.8.77,1.52,1.9,1.82,2.8.03.1.1.23.03.28Z"/>
    <path class="cls-6" d="M15.82,5.03c0,.06-.03.13-.01.19l-1.06-.53c.19-.41,1-.14,1.08.34Z"/>
    <path class="cls-9" d="M9.58,4.79c.58.02,1.1.14,1.68.38.42.17.49.18.9.31,1.47.44,3.33,1.42,4.55,2.42.17.14.4.4.55.51.08.06.34.17.45.25.46.3.91.75,1.18,1.18.07-.05,0-.19-.03-.28-.3-.9-1.02-2.03-1.82-2.8-.04-.04-.11-.13-.16-.13.16.33.35.76.36,1.08,0,.09.02.21-.11.2-.24-.02-.19-.33-.23-.47-.28-1.07-.74-1.72-1.97-2.32-.99-.48-1.76-.38-2.49-.03-.14.07-.27.3-.46.01-.06-.23.86-.47,1.07-.53l-.36-.09c-.95-.15-2.03-.09-2.82.14-.11.03-.29.06-.31.17Z"/>
    <path class="cls-11" d="M9.51,5.16c.82.49,1.57,1.1,2.21,1.76l.88-.95c-.05-.1-.92-.25-1.05-.3-.16-.06-.34-.19-.51-.26-.5-.22-1.06-.29-1.53-.26Z"/>
    <path class="cls-11" d="M16.16,7.92c.05.46-.03.9-.1,1.32.87.17,1.73.44,2.58.82-.24-.43-.7-.9-1.17-1.2-.13-.08-.32-.15-.43-.23-.25-.19-.48-.49-.79-.69-.03-.02-.03-.06-.09-.03Z"/>
    <path class="cls-11" d="M14.26,7.62c-.03.08-.2.36-.21.42,0,.03.38.22.41.25l1.27.82c.08,0,.19-1.32.11-1.45l-1.26-.8c-.12.24-.23.5-.33.75Z"/>
    <path class="cls-11" d="M12.03,7.13l1.55.7.58-1.18c-.04-.05-1.12-.54-1.19-.53-.11.02-.44.36-.52.45-.15.15-.27.33-.42.48v.08Z"/>
    <path class="cls-10" d="M14.3,6.87c-.64,1.25-.44.93-1.07,2.18-.02.13.13.22.22.12l1.12-2.3-.21-.13c-.07,0-.04.09-.06.12Z"/>
  </g>
  <path class="cls-10" d="M13.66,8.98v4.33s-.05,0-.07,0c-.23,0-.42-.14-.5-.35v-3.96l.57-.02Z"/>
  <path class="cls-8" d="M13.66,13.31h0s-.07,0-.07,0c.02,0,.05,0,.07,0Z"/>
  <g>
    <polygon class="cls-4" points="7.15 14.81 7.21 15.73 7.41 15.76 7.54 18.14 9.47 18.17 9.63 15.89 9.86 15.79 9.93 14.76 9.4 14.79 9.36 15.06 9 15.07 8.96 14.71 8.19 14.68 8.17 15.07 7.73 15.1 7.69 14.74 7.15 14.81"/>
    <polygon class="cls-8" points="9.86 15.79 7.21 15.73 7.4 15.86 9.63 15.89 9.86 15.79"/>
  </g>
  <polygon class="cls-7" points="8.16 15.87 8.78 15.88 8.78 18.2 8.25 18.2 8.16 15.87"/>
  <polygon class="cls-7" points="7.38 17.2 7.39 16.69 9.67 16.69 9.67 17.13 7.38 17.2"/>
  <path class="cls-10" d="M8.53,17.12h.05c0-.11.04-.24.13-.3.13-.08.26.08.2.21-.02.05-.08.09-.13.09.03-.06,0-.13-.08-.12-.04,0-.07.08-.07.12h.09s0,.09,0,.09h-.18s.01.06.03.08c0,0,.04.03.04.03,0,.01-.03.04-.04.05s-.04,0-.04.01c0,0,0,.04-.01.05,0,.02-.02.04-.04.06-.03-.03-.05-.07-.05-.11-.04,0-.06-.03-.08-.06.05-.02.08-.06.08-.11h-.17s0,0,0,0v-.09s.09,0,.09,0c0-.04-.02-.11-.06-.12-.08-.02-.11.05-.08.12-.09,0-.15-.08-.14-.17,0-.1.11-.19.21-.14.11.05.14.2.14.31h.05c0-.05,0-.1-.01-.15-.04-.2-.15-.29-.05-.5.03-.06.07-.11.11-.16.1.1.17.25.13.39-.01.05-.04.1-.06.15-.03.09-.06.17-.05.27Z"/>
</svg>