<?xml version="1.0" encoding="UTF-8"?>
<svg id="Calque_1" data-name="Calque 1" xmlns="http://www.w3.org/2000/svg" xmlns:xlink="http://www.w3.org/1999/xlink" viewBox="0 0 29.87 16.15">
  <defs>
    <style>
      .cls-1 {
        stroke-width: 5px;
      }

      .cls-1, .cls-2, .cls-3, .cls-4, .cls-5, .cls-6, .cls-7, .cls-8 {
        stroke-miterlimit: 10;
      }

      .cls-1, .cls-2, .cls-3, .cls-6, .cls-7, .cls-8 {
        stroke: #312783;
      }

      .cls-1, .cls-2, .cls-3, .cls-6, .cls-7, .cls-9 {
        fill: #312783;
      }

      .cls-10 {
        fill: #385aa6;
      }

      .cls-2 {
        stroke-width: 6px;
      }

      .cls-3 {
        stroke-width: 4px;
      }

      .cls-4 {
        fill: #ffed00;
        stroke: #ffed00;
      }

      .cls-5 {
        stroke: #1d1d1b;
      }

      .cls-5, .cls-8 {
        fill: none;
        stroke-width: .25px;
      }

      .cls-6 {
        stroke-width: 7px;
      }

      .cls-7 {
        stroke-width: 3px;
      }
    </style>
    <symbol id="Nouveau_symbole" data-name="Nouveau symbole" viewBox="0 0 219.69 118.79">
      <g>
        <g>
          <path class="cls-9" d="M10.21.02v23.94h32V.02h10.21v58.09h-10.21c0-13.22-10.72-23.94-23.94-23.94h-8.06s0,74.87,0,74.87H0V.02h10.21Z"/>
          <path class="cls-9" d="M122.22,13.99h0c0,2.45,2.7,3.9,4.77,2.59,2.62-1.65,5.61-2.59,8.79-2.59,10.3,0,18.67,9.88,18.67,22.06v22.06h-10.21v-22.06c0-6.54-4.92-11.84-11-11.84s-11,5.31-11,11.84v22.06h-10.21V13.99h10.21Z"/>
          <path class="cls-9" d="M177.4,13.99c5.34,0,10.16,2.64,13.56,6.89V0h10.21v58.11h-10.21,0c0-2.45-2.7-3.9-4.77-2.59-2.62,1.65-5.61,2.59-8.79,2.59-10.3,0-18.67-9.88-18.67-22.06s8.37-22.06,18.67-22.06ZM179.95,24.21c-6.08,0-11,5.31-11,11.84s4.92,11.84,11,11.84,11-5.31,11-11.84-4.92-11.84-11-11.84Z"/>
          <path class="cls-9" d="M209.47,0h10.21v10.21h-10.21V0ZM219.69,13.99v44.12h-10.21V13.99h10.21Z"/>
        </g>
        <g>
          <path class="cls-4" d="M44.77,66.17c6.78,0,12.34,5.55,12.34,12.34s-5.55,12.35-12.34,12.35h-.86c-9.56,0-17.31,7.75-17.31,17.31h0s-7.38,0-7.38,0v-42h25.55ZM44.63,83.48c2.33,0,4.45-1.54,4.97-3.81.74-3.21-1.72-6.11-4.83-6.11h-18.17v9.92h18.03Z"/>
          <path class="cls-4" d="M60.14,108.17v-42.01h7.38v42.01h-7.38Z"/>
          <path class="cls-4" d="M95,108.17v-.07c0-1.17-1.22-1.88-2.27-1.39-7.93,3.75-21.2.97-21.2-8.33,0-11.02,13.99-9.94,23.32-9.5-1.47-7.64-14.08-5.61-15.62-2.81h-7.52c.02-.72.1-1.66.22-2.13,2.45-9.86,30.45-12.59,30.45,6.28v17.94h-7.38ZM87.38,96.05c-5.71-.05-8.61,1.32-8.54,2.6.12,2.26,16.17,4.98,16.17-2.27-1.06,0-4.32-.29-7.63-.33Z"/>
          <path class="cls-4" d="M114.36,106.53v-4.46c1.37-.33,2.88-.56,4.43-.66l-4.91-2.54c-5.17-1.92-8.74-5.98-8.74-10.68,0-6.53,6.92-11.84,15.46-11.84,3.84,0,7.36,1.07,10.07,2.85l.64-2.94h7.38l-3.85,7.29c.79,1.42,1.23,2.99,1.23,4.64,0,5.45-4.8,10.03-11.33,11.42,5.68,2.83,11.33,6.47,11.33,10.2,0,4.68-6.92,8.47-15.46,8.47s-15.46-3.79-15.46-8.47c0-.26.01-.52.06-.78h7.7c1.24,1.28,4.72,1.86,8.11,1.81,10.69-.16,9.73-5.3-.43-5.3-2.51,0-4.76.38-6.24.97ZM128.67,88.2c0-2.47-3.62-4.46-8.08-4.46s-8.09,1.99-8.09,4.46,3.62,4.46,8.09,4.46,8.08-1.99,8.08-4.46Z"/>
          <path class="cls-4" d="M155.58,76.29c8.81,0,15.95,7.14,15.95,15.95,0,1.28-.15,2.5-.43,3.69h-23.25c1.37,2.88,4.32,4.87,7.72,4.87,2.25,0,4.29-.86,5.82-2.28h8.84c-2.44,5.67-8.09,9.66-14.66,9.66-8.81,0-15.95-7.14-15.95-15.95s7.14-15.93,15.95-15.93ZM155.57,83.66c-3.4,0-6.35,1.99-7.72,4.87h15.46c-1.38-2.89-4.32-4.87-7.74-4.87Z"/>
        </g>
        <g>
          <path class="cls-5" d="M79.06,42.87c0,5.92,4.8,10.72,10.7,10.72,5.92,0,10.7-4.8,10.7-10.72s-4.78-10.7-10.7-10.7c-5.9,0-10.7,4.8-10.7,10.7Z"/>
          <path class="cls-9" d="M57.78,52.85c0,1.87,1.51,3.38,3.38,3.38s3.38-1.51,3.38-3.38-1.51-3.38-3.38-3.38-3.38,1.51-3.38,3.38ZM58.43,52.85c0-1.51,1.23-2.74,2.74-2.74s2.74,1.23,2.74,2.74-1.22,2.74-2.74,2.74-2.74-1.23-2.74-2.74Z"/>
          <path class="cls-9" d="M60.26,52.85c0,.5.4.9.9.9s.9-.4.9-.9c0-.5-.4-.9-.9-.9s-.9.4-.9.9ZM60.43,52.85c0-.4.33-.72.73-.72s.73.33.73.72-.33.73-.73.73-.73-.33-.73-.73Z"/>
          <path class="cls-9" d="M60.43,52.85c0,.4.33.73.73.73s.73-.33.73-.73-.33-.72-.73-.72-.73.33-.73.72Z"/>
          <path class="cls-3" d="M77.28,38.5h-12c-1.06,0-1.91-.86-1.91-1.91h0c0-1.06.86-1.91,1.91-1.91h16.87s-4.87,3.83-4.87,3.83Z"/>
          <path class="cls-3" d="M99.42,32.68l-5.18-22.78c.39-1.65,1.34-1.92,2.37-1.68h0c1.03.24,1.75.91,1.36,2.55l5.06,23.93-3.61-2.03Z"/>
          <path class="cls-1" d="M67.13,38.54l-4.84,11.15c-.28.78-.43.3-.73.19h0c-.31-.11-.65.2-.38-.59l4-10.79,1.95.04Z"/>
          <path class="cls-1" d="M77.32,18.22v.06s16.38,0,16.38,0l.54-2.06h-15.45c-.84.2-1.47,1.01-1.47,2Z"/>
          <polygon class="cls-7" points="97.97 10 99.44 9.95 105.68 11.48 107.08 10.39 97.82 8 97.21 8.5 97.97 10"/>
          <path class="cls-6" d="M76.54,42.87c0,7.3,5.92,13.23,13.23,13.23,7.3,0,13.23-5.92,13.23-13.23s-5.92-13.21-13.23-13.21-13.23,5.92-13.23,13.21ZM79.06,42.87c0-5.9,4.8-10.7,10.7-10.7,5.92,0,10.7,4.8,10.7,10.7s-4.78,10.72-10.7,10.72c-5.9,0-10.7-4.8-10.7-10.72Z"/>
          <path class="cls-8" d="M79.06,42.87c0,5.92,4.8,10.72,10.7,10.72,5.92,0,10.7-4.8,10.7-10.72s-4.78-10.7-10.7-10.7c-5.9,0-10.7,4.8-10.7,10.7Z"/>
          <path class="cls-2" d="M58.43,52.85c0,1.51,1.23,2.74,2.74,2.74s2.74-1.23,2.74-2.74-1.22-2.74-2.74-2.74-2.74,1.23-2.74,2.74Z"/>
          <path class="cls-10" d="M70.52,31.13v.03s.26,0,.26,0c-.08,0-.18,0-.26-.03Z"/>
        </g>
      </g>
    </symbol>
  </defs>
  <use width="219.69" height="118.79" transform="scale(.14)" xlink:href="#Nouveau_symbole"/>
</svg>